<mxfile host="Electron" modified="2023-07-05T09:21:22.638Z" agent="Mozilla/5.0 (Macintosh; Intel Mac OS X 10_15_7) AppleWebKit/537.36 (KHTML, like Gecko) draw.io/21.5.1 Chrome/112.0.5615.204 Electron/24.6.0 Safari/537.36" etag="hJB90OhUKblxw4TVKmk_" version="21.5.1" type="device">
  <diagram name="Page-1" id="QmSr-4TKQR8N7m5TjDtL">
    <mxGraphModel dx="1114" dy="854" grid="1" gridSize="10" guides="1" tooltips="1" connect="1" arrows="1" fold="1" page="1" pageScale="1" pageWidth="827" pageHeight="1169" math="0" shadow="0">
      <root>
        <mxCell id="0" />
        <mxCell id="1" value="OraOperator" style="" parent="0" />
        <mxCell id="3YXiN8gFlHAmzXTICd1u-24" value="Traditional" style="" parent="0" />
        <mxCell id="3YXiN8gFlHAmzXTICd1u-47" value="" style="group;direction=east;" vertex="1" connectable="0" parent="3YXiN8gFlHAmzXTICd1u-24">
          <mxGeometry x="10" y="320" width="1035" height="310" as="geometry" />
        </mxCell>
        <mxCell id="3YXiN8gFlHAmzXTICd1u-28" style="edgeStyle=orthogonalEdgeStyle;rounded=0;orthogonalLoop=1;jettySize=auto;html=1;exitX=0.5;exitY=0;exitDx=0;exitDy=0;entryX=0.5;entryY=0;entryDx=0;entryDy=0;fillColor=#f8cecc;strokeColor=#FF3333;strokeWidth=2;endArrow=block;endFill=1;" edge="1" parent="3YXiN8gFlHAmzXTICd1u-47" source="3YXiN8gFlHAmzXTICd1u-30" target="3YXiN8gFlHAmzXTICd1u-27">
          <mxGeometry relative="1" as="geometry">
            <Array as="points">
              <mxPoint x="420" />
              <mxPoint x="60" />
            </Array>
          </mxGeometry>
        </mxCell>
        <mxCell id="3YXiN8gFlHAmzXTICd1u-29" value="Delegate" style="edgeLabel;html=1;align=center;verticalAlign=middle;resizable=0;points=[];" vertex="1" connectable="0" parent="3YXiN8gFlHAmzXTICd1u-28">
          <mxGeometry x="0.0458" y="-3" relative="1" as="geometry">
            <mxPoint as="offset" />
          </mxGeometry>
        </mxCell>
        <mxCell id="3YXiN8gFlHAmzXTICd1u-30" value="DBA" style="whiteSpace=wrap;html=1;rounded=1;strokeWidth=2;verticalAlign=bottom;direction=east;" vertex="1" parent="3YXiN8gFlHAmzXTICd1u-47">
          <mxGeometry y="70.34758620689655" width="120" height="90" as="geometry" />
        </mxCell>
        <mxCell id="3YXiN8gFlHAmzXTICd1u-25" style="edgeStyle=orthogonalEdgeStyle;rounded=0;orthogonalLoop=1;jettySize=auto;html=1;exitX=0.5;exitY=1;exitDx=0;exitDy=0;entryX=0.5;entryY=1;entryDx=0;entryDy=0;fillColor=#f8cecc;strokeColor=#FF3333;strokeWidth=2;endArrow=block;endFill=1;" edge="1" parent="3YXiN8gFlHAmzXTICd1u-47" source="3YXiN8gFlHAmzXTICd1u-27" target="3YXiN8gFlHAmzXTICd1u-30">
          <mxGeometry relative="1" as="geometry">
            <Array as="points">
              <mxPoint x="440" y="210" />
              <mxPoint x="60" y="210" />
            </Array>
          </mxGeometry>
        </mxCell>
        <mxCell id="3YXiN8gFlHAmzXTICd1u-26" value="Escalate" style="edgeLabel;html=1;align=center;verticalAlign=middle;resizable=0;points=[];" vertex="1" connectable="0" parent="3YXiN8gFlHAmzXTICd1u-25">
          <mxGeometry x="-0.0095" y="1" relative="1" as="geometry">
            <mxPoint as="offset" />
          </mxGeometry>
        </mxCell>
        <mxCell id="3YXiN8gFlHAmzXTICd1u-31" value="" style="html=1;verticalLabelPosition=bottom;align=center;labelBackgroundColor=#ffffff;verticalAlign=top;strokeWidth=1;shadow=0;dashed=0;shape=mxgraph.ios7.icons.data;direction=east;" vertex="1" parent="3YXiN8gFlHAmzXTICd1u-47">
          <mxGeometry x="200" y="80.34413793103448" width="80" height="80" as="geometry" />
        </mxCell>
        <mxCell id="3YXiN8gFlHAmzXTICd1u-32" style="edgeStyle=orthogonalEdgeStyle;rounded=0;orthogonalLoop=1;jettySize=auto;html=1;exitX=0.5;exitY=0;exitDx=0;exitDy=0;entryX=0.5;entryY=1;entryDx=0;entryDy=0;strokeWidth=2;strokeColor=#FF3333;endArrow=none;endFill=0;" edge="1" parent="3YXiN8gFlHAmzXTICd1u-47" source="3YXiN8gFlHAmzXTICd1u-33" target="3YXiN8gFlHAmzXTICd1u-30">
          <mxGeometry relative="1" as="geometry">
            <mxPoint x="429.03999999999996" y="165.51724137931035" as="sourcePoint" />
            <mxPoint x="429.03999999999996" y="115.86206896551725" as="targetPoint" />
          </mxGeometry>
        </mxCell>
        <mxCell id="3YXiN8gFlHAmzXTICd1u-33" value="Developer" style="whiteSpace=wrap;html=1;rounded=1;strokeWidth=2;verticalAlign=bottom;direction=east;" vertex="1" parent="3YXiN8gFlHAmzXTICd1u-47">
          <mxGeometry y="217.24137931034485" width="120" height="90" as="geometry" />
        </mxCell>
        <mxCell id="3YXiN8gFlHAmzXTICd1u-34" value="" style="shape=actor;whiteSpace=wrap;html=1;direction=east;" vertex="1" parent="3YXiN8gFlHAmzXTICd1u-47">
          <mxGeometry x="10" y="237.93103448275863" width="40" height="51.724137931034484" as="geometry" />
        </mxCell>
        <mxCell id="3YXiN8gFlHAmzXTICd1u-35" value="" style="shape=actor;whiteSpace=wrap;html=1;direction=east;" vertex="1" parent="3YXiN8gFlHAmzXTICd1u-47">
          <mxGeometry x="10" y="70.3448275862069" width="40" height="51.724137931034484" as="geometry" />
        </mxCell>
        <mxCell id="3YXiN8gFlHAmzXTICd1u-37" value="" style="sketch=0;outlineConnect=0;fontColor=#232F3E;gradientColor=none;fillColor=#232F3D;strokeColor=none;dashed=0;verticalLabelPosition=bottom;verticalAlign=top;align=center;html=1;fontSize=12;fontStyle=0;aspect=fixed;pointerEvents=1;shape=mxgraph.aws4.source_code;direction=east;" vertex="1" parent="3YXiN8gFlHAmzXTICd1u-47">
          <mxGeometry x="66.73000000000002" y="237.93103448275863" width="36.53" height="50" as="geometry" />
        </mxCell>
        <mxCell id="3YXiN8gFlHAmzXTICd1u-38" value="" style="html=1;verticalLabelPosition=bottom;align=center;labelBackgroundColor=#ffffff;verticalAlign=top;strokeWidth=2;strokeColor=#000000;shadow=0;dashed=0;shape=mxgraph.ios7.icons.settings;direction=east;" vertex="1" parent="3YXiN8gFlHAmzXTICd1u-47">
          <mxGeometry x="60" y="80.6896551724138" width="50" height="46.55172413793104" as="geometry" />
        </mxCell>
        <mxCell id="3YXiN8gFlHAmzXTICd1u-40" value="Monitor" style="html=1;shadow=0;dashed=0;align=center;verticalAlign=middle;shape=mxgraph.arrows2.arrow;dy=0.67;dx=20;notch=0;fontSize=10;horizontal=1;fillColor=none;strokeColor=#d79b00;direction=east;flipH=1;" vertex="1" parent="3YXiN8gFlHAmzXTICd1u-47">
          <mxGeometry x="290" y="48.62068965517242" width="70" height="41.37931034482759" as="geometry" />
        </mxCell>
        <mxCell id="3YXiN8gFlHAmzXTICd1u-41" value="Adjust" style="html=1;shadow=0;dashed=0;align=center;verticalAlign=middle;shape=mxgraph.arrows2.arrow;dy=0.67;dx=20;notch=0;fontSize=10;horizontal=1;fillColor=none;strokeColor=#b85450;direction=east;flipH=1;" vertex="1" parent="3YXiN8gFlHAmzXTICd1u-47">
          <mxGeometry x="290" y="122.07310344827587" width="70" height="41.37931034482759" as="geometry" />
        </mxCell>
        <mxCell id="3YXiN8gFlHAmzXTICd1u-42" value="Events" style="html=1;shadow=0;dashed=0;align=center;verticalAlign=middle;shape=mxgraph.arrows2.arrow;dy=0.67;dx=20;notch=0;fontSize=10;horizontal=1;flipV=0;flipH=0;fillColor=none;strokeColor=#9673a6;direction=east;" vertex="1" parent="3YXiN8gFlHAmzXTICd1u-47">
          <mxGeometry x="300" y="83.2796551724138" width="70" height="41.37931034482759" as="geometry" />
        </mxCell>
        <mxCell id="3YXiN8gFlHAmzXTICd1u-43" value="Lifecycle" style="html=1;shadow=0;dashed=0;align=center;verticalAlign=middle;shape=mxgraph.arrows2.arrow;dy=0.67;dx=20;notch=0;fontSize=10;horizontal=1;flipV=0;flipH=0;fillColor=none;strokeColor=#d6b656;direction=east;" vertex="1" parent="3YXiN8gFlHAmzXTICd1u-47">
          <mxGeometry x="126" y="22.96586206896552" width="70" height="41.37931034482759" as="geometry" />
        </mxCell>
        <mxCell id="3YXiN8gFlHAmzXTICd1u-44" value="Tune" style="html=1;shadow=0;dashed=0;align=center;verticalAlign=middle;shape=mxgraph.arrows2.arrow;dy=0.67;dx=20;notch=0;fontSize=10;horizontal=1;flipV=0;flipH=0;fillColor=none;strokeColor=#82b366;direction=east;" vertex="1" parent="3YXiN8gFlHAmzXTICd1u-47">
          <mxGeometry x="126" y="115.9686206896552" width="70" height="41.37931034482759" as="geometry" />
        </mxCell>
        <mxCell id="3YXiN8gFlHAmzXTICd1u-45" value="Manage" style="html=1;shadow=0;dashed=0;align=center;verticalAlign=middle;shape=mxgraph.arrows2.arrow;dy=0.67;dx=20;notch=0;fontSize=10;horizontal=1;flipV=0;flipH=0;fillColor=none;fontColor=#333333;strokeColor=#666666;direction=east;" vertex="1" parent="3YXiN8gFlHAmzXTICd1u-47">
          <mxGeometry x="126" y="69.51689655172416" width="70" height="41.37931034482759" as="geometry" />
        </mxCell>
        <mxCell id="3YXiN8gFlHAmzXTICd1u-50" value="" style="group" vertex="1" connectable="0" parent="3YXiN8gFlHAmzXTICd1u-47">
          <mxGeometry x="380" y="70.34896551724138" width="120" height="90" as="geometry" />
        </mxCell>
        <mxCell id="3YXiN8gFlHAmzXTICd1u-27" value="Operator" style="whiteSpace=wrap;html=1;rounded=1;strokeWidth=2;verticalAlign=bottom;direction=east;" vertex="1" parent="3YXiN8gFlHAmzXTICd1u-50">
          <mxGeometry width="120" height="89.99999999999999" as="geometry" />
        </mxCell>
        <mxCell id="3YXiN8gFlHAmzXTICd1u-36" value="" style="shape=actor;whiteSpace=wrap;html=1;direction=east;" vertex="1" parent="3YXiN8gFlHAmzXTICd1u-50">
          <mxGeometry x="10" y="9.999999999999998" width="40" height="49.99999999999999" as="geometry" />
        </mxCell>
        <mxCell id="3YXiN8gFlHAmzXTICd1u-39" value="" style="sketch=0;pointerEvents=1;shadow=0;dashed=0;html=1;strokeColor=none;fillColor=#505050;labelPosition=center;verticalLabelPosition=bottom;verticalAlign=top;outlineConnect=0;align=center;shape=mxgraph.office.servers.monitoring_sql_reporting_services;direction=east;" vertex="1" parent="3YXiN8gFlHAmzXTICd1u-50">
          <mxGeometry x="60" y="9.999999999999998" width="50" height="49.99999999999999" as="geometry" />
        </mxCell>
        <mxCell id="3YXiN8gFlHAmzXTICd1u-1" value="" style="group" vertex="1" connectable="0" parent="3YXiN8gFlHAmzXTICd1u-47">
          <mxGeometry x="550" width="485" height="310" as="geometry" />
        </mxCell>
        <mxCell id="dnYPMceCdqJ86rZ7KKY0-49" value="OraOperator" style="whiteSpace=wrap;html=1;rounded=1;strokeWidth=2;verticalAlign=bottom;" parent="3YXiN8gFlHAmzXTICd1u-1" vertex="1">
          <mxGeometry y="69" width="120" height="90" as="geometry" />
        </mxCell>
        <mxCell id="dnYPMceCdqJ86rZ7KKY0-92" style="edgeStyle=orthogonalEdgeStyle;rounded=0;orthogonalLoop=1;jettySize=auto;html=1;exitX=0.5;exitY=0;exitDx=0;exitDy=0;entryX=0.5;entryY=0;entryDx=0;entryDy=0;strokeWidth=2;endArrow=none;endFill=0;startArrow=classic;startFill=1;strokeColor=#FF3333;" parent="3YXiN8gFlHAmzXTICd1u-1" source="dnYPMceCdqJ86rZ7KKY0-51" target="dnYPMceCdqJ86rZ7KKY0-49" edge="1">
          <mxGeometry relative="1" as="geometry">
            <Array as="points">
              <mxPoint x="425" />
              <mxPoint x="60" />
            </Array>
          </mxGeometry>
        </mxCell>
        <mxCell id="dnYPMceCdqJ86rZ7KKY0-94" value="Escalate" style="edgeLabel;html=1;align=center;verticalAlign=middle;resizable=0;points=[];" parent="dnYPMceCdqJ86rZ7KKY0-92" vertex="1" connectable="0">
          <mxGeometry x="-0.1183" relative="1" as="geometry">
            <mxPoint as="offset" />
          </mxGeometry>
        </mxCell>
        <mxCell id="3YXiN8gFlHAmzXTICd1u-57" style="edgeStyle=orthogonalEdgeStyle;rounded=0;orthogonalLoop=1;jettySize=auto;html=1;exitX=0.5;exitY=1;exitDx=0;exitDy=0;startArrow=classic;startFill=1;fillColor=#6d8764;strokeColor=#00994D;strokeWidth=4;" edge="1" parent="3YXiN8gFlHAmzXTICd1u-1" source="dnYPMceCdqJ86rZ7KKY0-51">
          <mxGeometry relative="1" as="geometry">
            <mxPoint x="425" y="220" as="targetPoint" />
          </mxGeometry>
        </mxCell>
        <mxCell id="3YXiN8gFlHAmzXTICd1u-58" value="Collaborate" style="edgeLabel;html=1;align=center;verticalAlign=middle;resizable=0;points=[];" vertex="1" connectable="0" parent="3YXiN8gFlHAmzXTICd1u-57">
          <mxGeometry x="-0.0374" y="2" relative="1" as="geometry">
            <mxPoint as="offset" />
          </mxGeometry>
        </mxCell>
        <mxCell id="dnYPMceCdqJ86rZ7KKY0-52" value="" style="html=1;verticalLabelPosition=bottom;align=center;labelBackgroundColor=#ffffff;verticalAlign=top;strokeWidth=1;shadow=0;dashed=0;shape=mxgraph.ios7.icons.data;" parent="3YXiN8gFlHAmzXTICd1u-1" vertex="1">
          <mxGeometry x="208" y="78.5" width="80" height="80" as="geometry" />
        </mxCell>
        <mxCell id="dnYPMceCdqJ86rZ7KKY0-91" style="edgeStyle=orthogonalEdgeStyle;rounded=0;orthogonalLoop=1;jettySize=auto;html=1;strokeColor=#00994D;strokeWidth=2;endArrow=block;endFill=1;" parent="3YXiN8gFlHAmzXTICd1u-1" source="dnYPMceCdqJ86rZ7KKY0-53" edge="1">
          <mxGeometry relative="1" as="geometry">
            <Array as="points">
              <mxPoint x="425" y="250" />
              <mxPoint x="60" y="250" />
              <mxPoint x="60" y="159" />
            </Array>
            <mxPoint x="60" y="159" as="targetPoint" />
          </mxGeometry>
        </mxCell>
        <mxCell id="dnYPMceCdqJ86rZ7KKY0-93" value="DevOps" style="edgeLabel;html=1;align=center;verticalAlign=middle;resizable=0;points=[];" parent="dnYPMceCdqJ86rZ7KKY0-91" vertex="1" connectable="0">
          <mxGeometry x="-0.2518" y="-3" relative="1" as="geometry">
            <mxPoint as="offset" />
          </mxGeometry>
        </mxCell>
        <mxCell id="dnYPMceCdqJ86rZ7KKY0-75" value="" style="sketch=0;pointerEvents=1;shadow=0;dashed=0;html=1;strokeColor=none;fillColor=#505050;labelPosition=center;verticalLabelPosition=bottom;verticalAlign=top;outlineConnect=0;align=center;shape=mxgraph.office.servers.monitoring_sql_reporting_services;" parent="3YXiN8gFlHAmzXTICd1u-1" vertex="1">
          <mxGeometry x="60" y="83.5" width="50" height="50" as="geometry" />
        </mxCell>
        <mxCell id="dnYPMceCdqJ86rZ7KKY0-77" value="Monitor" style="html=1;shadow=0;dashed=0;align=center;verticalAlign=middle;shape=mxgraph.arrows2.arrow;dy=0.67;dx=20;notch=0;fontSize=10;horizontal=1;fillColor=none;strokeColor=#d79b00;" parent="3YXiN8gFlHAmzXTICd1u-1" vertex="1">
          <mxGeometry x="135" y="86.5" width="70" height="40" as="geometry" />
        </mxCell>
        <mxCell id="dnYPMceCdqJ86rZ7KKY0-79" value="Adjust" style="html=1;shadow=0;dashed=0;align=center;verticalAlign=middle;shape=mxgraph.arrows2.arrow;dy=0.67;dx=20;notch=0;fontSize=10;horizontal=1;fillColor=none;strokeColor=#b85450;" parent="3YXiN8gFlHAmzXTICd1u-1" vertex="1">
          <mxGeometry x="130" y="170" width="70" height="40" as="geometry" />
        </mxCell>
        <mxCell id="dnYPMceCdqJ86rZ7KKY0-80" value="Events" style="html=1;shadow=0;dashed=0;align=center;verticalAlign=middle;shape=mxgraph.arrows2.arrow;dy=0.67;dx=20;notch=0;fontSize=10;horizontal=1;flipV=0;flipH=1;fillColor=none;strokeColor=#9673a6;" parent="3YXiN8gFlHAmzXTICd1u-1" vertex="1">
          <mxGeometry x="130" y="129" width="70" height="40" as="geometry" />
        </mxCell>
        <mxCell id="dnYPMceCdqJ86rZ7KKY0-81" value="Lifecycle" style="html=1;shadow=0;dashed=0;align=center;verticalAlign=middle;shape=mxgraph.arrows2.arrow;dy=0.67;dx=20;notch=0;fontSize=10;horizontal=1;flipV=0;flipH=0;fillColor=none;strokeColor=#d6b656;" parent="3YXiN8gFlHAmzXTICd1u-1" vertex="1">
          <mxGeometry x="135" y="41" width="70" height="40" as="geometry" />
        </mxCell>
        <mxCell id="dnYPMceCdqJ86rZ7KKY0-82" value="Tune" style="html=1;shadow=0;dashed=0;align=center;verticalAlign=middle;shape=mxgraph.arrows2.arrow;dy=0.67;dx=20;notch=0;fontSize=10;horizontal=1;flipV=0;flipH=1;fillColor=none;strokeColor=#82b366;" parent="3YXiN8gFlHAmzXTICd1u-1" vertex="1">
          <mxGeometry x="292" y="84.5" width="70" height="40" as="geometry" />
        </mxCell>
        <mxCell id="dnYPMceCdqJ86rZ7KKY0-84" value="Deploy" style="html=1;shadow=0;dashed=0;align=center;verticalAlign=middle;shape=mxgraph.arrows2.arrow;dy=0.67;dx=20;notch=0;fontSize=10;horizontal=1;flipV=0;flipH=1;fillColor=none;strokeColor=#6c8ebf;" parent="3YXiN8gFlHAmzXTICd1u-1" vertex="1">
          <mxGeometry x="292" y="163" width="70" height="40" as="geometry" />
        </mxCell>
        <mxCell id="dnYPMceCdqJ86rZ7KKY0-89" value="" style="image;sketch=0;aspect=fixed;html=1;points=[];align=center;fontSize=12;image=img/lib/mscae/Kubernetes.svg;" parent="3YXiN8gFlHAmzXTICd1u-1" vertex="1">
          <mxGeometry x="3" y="87" width="50" height="48" as="geometry" />
        </mxCell>
        <mxCell id="3YXiN8gFlHAmzXTICd1u-56" value="" style="group" vertex="1" connectable="0" parent="3YXiN8gFlHAmzXTICd1u-1">
          <mxGeometry x="365" y="220" width="120" height="90" as="geometry" />
        </mxCell>
        <mxCell id="dnYPMceCdqJ86rZ7KKY0-53" value="Developer" style="whiteSpace=wrap;html=1;rounded=1;strokeWidth=2;verticalAlign=bottom;" parent="3YXiN8gFlHAmzXTICd1u-56" vertex="1">
          <mxGeometry width="120" height="90" as="geometry" />
        </mxCell>
        <mxCell id="dnYPMceCdqJ86rZ7KKY0-57" value="" style="shape=actor;whiteSpace=wrap;html=1;" parent="3YXiN8gFlHAmzXTICd1u-56" vertex="1">
          <mxGeometry x="15" y="16.5" width="40" height="50" as="geometry" />
        </mxCell>
        <mxCell id="dnYPMceCdqJ86rZ7KKY0-60" value="" style="sketch=0;outlineConnect=0;fontColor=#232F3E;gradientColor=none;fillColor=#232F3D;strokeColor=none;dashed=0;verticalLabelPosition=bottom;verticalAlign=top;align=center;html=1;fontSize=12;fontStyle=0;aspect=fixed;pointerEvents=1;shape=mxgraph.aws4.source_code;" parent="3YXiN8gFlHAmzXTICd1u-56" vertex="1">
          <mxGeometry x="65" y="16.5" width="36.53" height="50" as="geometry" />
        </mxCell>
        <mxCell id="3YXiN8gFlHAmzXTICd1u-60" value="" style="group" vertex="1" connectable="0" parent="3YXiN8gFlHAmzXTICd1u-1">
          <mxGeometry x="365" y="59.5" width="120" height="90" as="geometry" />
        </mxCell>
        <mxCell id="dnYPMceCdqJ86rZ7KKY0-51" value="DBA" style="whiteSpace=wrap;html=1;rounded=1;strokeWidth=2;verticalAlign=bottom;" parent="3YXiN8gFlHAmzXTICd1u-60" vertex="1">
          <mxGeometry width="120" height="90" as="geometry" />
        </mxCell>
        <mxCell id="dnYPMceCdqJ86rZ7KKY0-58" value="" style="shape=actor;whiteSpace=wrap;html=1;" parent="3YXiN8gFlHAmzXTICd1u-60" vertex="1">
          <mxGeometry x="15" y="10" width="40" height="50" as="geometry" />
        </mxCell>
        <mxCell id="dnYPMceCdqJ86rZ7KKY0-63" value="" style="html=1;verticalLabelPosition=bottom;align=center;labelBackgroundColor=#ffffff;verticalAlign=top;strokeWidth=2;strokeColor=#000000;shadow=0;dashed=0;shape=mxgraph.ios7.icons.settings;" parent="3YXiN8gFlHAmzXTICd1u-60" vertex="1">
          <mxGeometry x="65" y="15" width="50" height="45" as="geometry" />
        </mxCell>
        <mxCell id="3YXiN8gFlHAmzXTICd1u-61" style="edgeStyle=orthogonalEdgeStyle;rounded=0;orthogonalLoop=1;jettySize=auto;html=1;exitX=0.25;exitY=0;exitDx=0;exitDy=0;entryX=0.75;entryY=0;entryDx=0;entryDy=0;" edge="1" parent="3YXiN8gFlHAmzXTICd1u-1" source="dnYPMceCdqJ86rZ7KKY0-51" target="dnYPMceCdqJ86rZ7KKY0-49">
          <mxGeometry relative="1" as="geometry">
            <Array as="points">
              <mxPoint x="395" y="20" />
              <mxPoint x="90" y="20" />
            </Array>
          </mxGeometry>
        </mxCell>
        <mxCell id="3YXiN8gFlHAmzXTICd1u-62" value="Manage" style="edgeLabel;html=1;align=center;verticalAlign=middle;resizable=0;points=[];" vertex="1" connectable="0" parent="3YXiN8gFlHAmzXTICd1u-61">
          <mxGeometry x="-0.1792" y="2" relative="1" as="geometry">
            <mxPoint as="offset" />
          </mxGeometry>
        </mxCell>
        <mxCell id="3YXiN8gFlHAmzXTICd1u-46" value="Deploy" style="html=1;shadow=0;dashed=0;align=center;verticalAlign=middle;shape=mxgraph.arrows2.arrow;dy=0.67;dx=20;notch=0;fontSize=10;horizontal=1;flipV=0;flipH=0;fillColor=none;strokeColor=#6c8ebf;direction=east;" vertex="1" parent="3YXiN8gFlHAmzXTICd1u-47">
          <mxGeometry x="126" y="163.34517241379308" width="70" height="41.37931034482759" as="geometry" />
        </mxCell>
        <mxCell id="3YXiN8gFlHAmzXTICd1u-59" value="" style="html=1;shadow=0;dashed=0;align=center;verticalAlign=middle;shape=mxgraph.arrows2.arrow;dy=0.6;dx=40;notch=0;fillColor=#dae8fc;gradientColor=#7ea6e0;strokeColor=#6c8ebf;gradientDirection=east;" vertex="1" parent="3YXiN8gFlHAmzXTICd1u-47">
          <mxGeometry x="500" y="105.33999999999997" width="50" height="30" as="geometry" />
        </mxCell>
      </root>
    </mxGraphModel>
  </diagram>
</mxfile>
